<?xml version="1.0" encoding="UTF-8" standalone="no"?>
<!-- Created with Inkscape (http://www.inkscape.org/) -->

<svg
   width="256"
   height="256"
   viewBox="0 0 67.733332 67.733332"
   version="1.1"
   id="svg1"
   inkscape:version="1.3.2 (091e20e, 2023-11-25, custom)"
   sodipodi:docname="favicon.svg"
   xmlns:inkscape="http://www.inkscape.org/namespaces/inkscape"
   xmlns:sodipodi="http://sodipodi.sourceforge.net/DTD/sodipodi-0.dtd"
   xmlns="http://www.w3.org/2000/svg"
   xmlns:svg="http://www.w3.org/2000/svg">
  <sodipodi:namedview
     id="namedview1"
     pagecolor="#ffffff"
     bordercolor="#000000"
     borderopacity="0.25"
     inkscape:showpageshadow="2"
     inkscape:pageopacity="0.0"
     inkscape:pagecheckerboard="0"
     inkscape:deskcolor="#d1d1d1"
     inkscape:document-units="mm"
     inkscape:zoom="2"
     inkscape:cx="122.75"
     inkscape:cy="168.25"
     inkscape:window-width="1920"
     inkscape:window-height="1009"
     inkscape:window-x="-8"
     inkscape:window-y="-8"
     inkscape:window-maximized="1"
     inkscape:current-layer="layer1" />
  <defs
     id="defs1" />
  <g
     inkscape:label="Calque 1"
     inkscape:groupmode="layer"
     id="layer1">
    <g
       id="g19"
       transform="matrix(4.0098775,0,0,4.0081319,1.2197821,-0.06037227)"
       style="stroke-width:0.249439">
      <path
         class="st0"
         d="m 10.779527,5.8448758 c 0.47174,-0.3509681 0.926483,-0.5095261 1.365783,-0.5053379 0.92002,0.00956 1.576913,0.5921478 2.027852,1.4296147 0.474321,0.881314 0.557346,1.7659107 0.899731,2.6393185 0.170726,0.4361803 0.460223,0.9618559 1.089599,1.8433649 -0.744324,0.237556 -1.871323,-0.703735 -2.416994,-2.1647114 -0.03996,0.4419945 0.07001,0.9255464 0.377604,1.4640634 C 13.197117,10.466975 12.664221,9.7045193 12.528916,8.0648114 12.396732,8.4008637 12.369373,8.8098146 12.48878,9.3394617 10.844524,8.7507189 12.151005,6.738515 10.779527,5.8448758 Z"
         id="path19"
         style="clip-rule:evenodd;fill:#ffea35;fill-opacity:1;fill-rule:evenodd;stroke:#000000;stroke-width:0.131994;stroke-linejoin:miter;stroke-dasharray:none;stroke-opacity:1"
         sodipodi:nodetypes="cccccccccc" />
      <path
         class="st0"
         d="m 11.729337,9.4391511 c 0.539826,0.2330444 0.904516,0.5475739 1.120539,0.9301029 0.451735,0.801517 0.275628,1.661685 -0.224189,2.470933 -0.526101,0.851419 -1.250691,1.365618 -1.835911,2.098828 -0.292392,0.36594 -0.602903,0.879481 -1.0516433,1.865277 -0.577897,-0.525808 -0.3261941,-1.972437 0.6662463,-3.175478 -0.402766,0.186396 -0.7665601,0.523406 -1.0791481,1.059038 -0.3900595,-0.844011 0.00382,-1.686729 1.3562291,-2.623758 -0.357129,0.05355 -0.7249795,0.234337 -1.1239761,0.602567 -0.3122486,-1.7183 2.0836571,-1.592987 2.1718531,-3.2275099 z"
         id="path19-8"
         style="clip-rule:evenodd;fill:#89fc85;fill-opacity:1;fill-rule:evenodd;stroke:#000000;stroke-width:0.131994;stroke-linejoin:miter;stroke-dasharray:none;stroke-opacity:1"
         sodipodi:nodetypes="cccccccccc" />
      <path
         class="st0"
         d="m 9.0914264,12.058826 c 0.068085,0.584013 -0.021968,1.0571 -0.2452444,1.435441 C 8.3778964,14.286229 7.544896,14.563804 6.5941402,14.535585 5.5937196,14.50569 4.7861032,14.135292 3.858498,13.995095 3.3953807,13.924854 2.7953733,13.912721 1.7172563,14.017008 1.8836828,13.253644 3.2623849,12.748305 4.8004971,13.00624 4.4376866,12.750642 3.9639219,12.6041 3.3437451,12.601214 3.8796699,11.841416 4.8064422,11.761154 6.29416,12.463833 6.0692152,12.181336 5.7287233,11.953168 5.2103204,11.791751 c 1.3320068,-1.129559 2.4214321,1.007959 3.881106,0.267075 z"
         id="path19-55"
         style="clip-rule:evenodd;fill:#66a2f8;fill-opacity:1;fill-rule:evenodd;stroke:#000000;stroke-width:0.131994;stroke-linejoin:miter;stroke-dasharray:none;stroke-opacity:1"
         sodipodi:nodetypes="cccccccccc"
         inkscape:transform-center-y="-4.7354348"
         inkscape:transform-center-x="1.0818988" />
      <path
         class="st0"
         d="M 5.503706,11.084226 C 5.0319655,11.435194 4.5772229,11.593752 4.1379232,11.589564 3.2179031,11.580009 2.5610088,10.997416 2.1100703,10.159949 1.6357501,9.2786353 1.5527246,8.3940387 1.2103393,7.5206316 1.0396133,7.08445 0.75011711,6.5587758 0.12074086,5.6772674 0.86506426,5.4397109 1.9920632,6.381001 2.5377352,7.8419775 2.5776903,7.3999836 2.4677202,6.9164315 2.1601311,6.3779138 3.0861154,6.4621269 3.619012,7.2245834 3.7543173,8.86429 3.8865007,8.5282388 3.9138598,8.1192877 3.7944533,7.5896408 5.4387085,8.178383 4.1322278,10.190587 5.503706,11.084226 Z"
         id="path19-48"
         style="clip-rule:evenodd;fill:#7b51e1;fill-opacity:1;fill-rule:evenodd;stroke:#000000;stroke-width:0.131994;stroke-linejoin:miter;stroke-dasharray:none;stroke-opacity:1"
         sodipodi:nodetypes="cccccccccc" />
      <path
         class="st0"
         d="M 4.5538961,7.4899517 C 4.0140705,7.2569074 3.6493804,6.9423777 3.4333578,6.5598491 2.9816233,5.7583318 3.1577295,4.8981632 3.657547,4.088916 4.1836476,3.2374967 4.9082384,2.7232981 5.4934587,1.9900879 5.78585,1.6241483 6.0963613,1.1106065 6.5451022,0.12481098 7.1229992,0.65061897 6.8712956,2.0972478 5.8788552,3.3002892 6.2816209,3.1138938 6.6454155,2.7768832 6.9580035,2.2412515 7.3480627,3.0852628 6.9541866,3.9279808 5.6017741,4.8650087 5.9589025,4.8114542 6.3267533,4.6306717 6.72575,4.262442 7.0379982,5.9807425 4.6420918,5.8554284 4.5538961,7.4899517 Z"
         id="path19-5"
         style="clip-rule:evenodd;fill:#fc3232;fill-opacity:1;fill-rule:evenodd;stroke:#000000;stroke-width:0.131994;stroke-linejoin:miter;stroke-dasharray:none;stroke-opacity:1"
         sodipodi:nodetypes="cccccccccc" />
      <path
         class="st0"
         d="M 7.1918058,4.8702772 C 7.1237207,4.2862645 7.2137733,3.8131773 7.4370499,3.4348367 7.9053353,2.6428747 8.7383357,2.3652985 9.6890915,2.3935179 c 1.0004205,0.029895 1.8080365,0.4002925 2.7356425,0.5404892 0.463117,0.070241 1.063125,0.082374 2.141241,-0.021914 -0.166424,0.763365 -1.545128,1.2687036 -3.08324,1.0107689 0.362811,0.2555982 0.836575,0.4021398 1.456752,0.4050256 C 12.403563,5.0876864 11.47679,5.167948 9.989072,4.4652697 10.214017,4.7477665 10.554509,4.975935 11.072912,5.137352 9.7409055,6.2669104 8.6514795,4.1293926 7.1918058,4.8702772 Z"
         id="path19-4"
         style="clip-rule:evenodd;fill:#fe992f;fill-opacity:1;fill-rule:evenodd;stroke:#000000;stroke-width:0.131994;stroke-linecap:butt;stroke-linejoin:miter;stroke-dasharray:none;stroke-opacity:1;paint-order:normal"
         sodipodi:nodetypes="cccccccccc" />
    </g>
  </g>
</svg>
